<svg width="18" height="18" viewBox="0 0 18 18" fill="none" xmlns="http://www.w3.org/2000/svg">
    <path d="M9 0C13.9706 0 18 4.02944 18 9C18 13.9706 13.9706 18 9 18C4.02944 18 0 13.9706 0 9C0 4.02944 4.02944 0 9 0Z" fill="#FF6643"/>
    <path d="M9 18V0C13.9706 0 18 4.02943 18 9C18 13.9706 13.9706 18 9 18Z" fill="#FF4F19"/>
    <path d="M12.8639 11.5001L11.5002 12.8638L9.00004 10.3636L6.49991 12.8638L5.13623 11.5001L7.63637 8.99996L5.13623 6.49982L6.49991 5.13615L9.00004 7.63628L11.5002 5.13615L12.8639 6.49982L10.3637 8.99996L12.8639 11.5001Z" fill="#F2F2F4"/>
    <path d="M12.8638 11.5001L11.5001 12.8638L9 10.3636V7.63628L11.5001 5.13615L12.8638 6.49982L10.3637 8.99996L12.8638 11.5001Z" fill="#DFDFE1"/>
</svg>
