<svg width="60" height="60" viewBox="0 0 60 60" fill="none" xmlns="http://www.w3.org/2000/svg">
    <path d="M18.6712 9.43595C23.4119 4.69581 30.6381 3.94309 36.1868 7.14452L34.7262 8.60496C34.306 9.02424 34.1806 9.65309 34.4074 10.2013C34.6339 10.7457 35.1664 11.1046 35.7607 11.1034L42.2316 11.1007C43.0395 11.1007 43.696 10.4437 43.696 9.63736V3.16879C43.696 2.5725 43.3403 2.04057 42.7947 1.8149C42.2437 1.58911 41.6161 1.7142 41.1977 2.13274L39.1076 4.22362C31.9247 -0.499819 22.1525 0.293009 15.8403 6.60503C15.0578 7.38701 15.0578 8.65397 15.8403 9.43607C16.6221 10.2178 17.8887 10.2178 18.6712 9.43595Z" fill="#1275D3"/>
    <path d="M42.2805 50.5632C37.5396 55.3031 30.3133 56.0561 24.7649 52.8543L26.2254 51.394C26.6456 50.9746 26.771 50.3462 26.5444 49.7976C26.3171 49.2532 25.7852 48.8947 25.1908 48.8955L18.72 48.8984C17.9121 48.8984 17.2556 49.5553 17.2556 50.3617V56.8303C17.2556 57.4265 17.6112 57.9584 18.157 58.1841C18.7078 58.4099 19.3355 58.2848 19.7539 57.8663L21.844 55.7754C24.9191 57.7971 28.468 58.8096 32.0182 58.8096C36.7596 58.8096 41.5003 57.0041 45.1115 53.3941C45.8939 52.612 45.8939 51.3451 45.1115 50.5632C44.3294 49.781 43.0629 49.781 42.2805 50.5632Z" fill="#1275D3"/>
    <path d="M23.0287 40.4738C23.4277 40.0723 23.6484 39.5394 23.6484 38.9753V16.575C23.6484 15.4066 22.6965 14.4556 21.5275 14.4556H2.12136C0.951199 14.4556 0 15.4066 0 16.575V43.4223C0 44.5924 0.95132 45.5434 2.12136 45.5434H17.0816C17.6481 45.5434 18.1805 45.3223 18.5808 44.9206L23.0287 40.4738ZM19.4079 18.6963V36.856H17.0816C15.9126 36.856 14.9602 37.8071 14.9602 38.9753V41.3008H4.24028V18.6963H19.4079Z" fill="#1275D3"/>
    <path d="M57.8785 14.4556H38.4699C37.3009 14.4556 36.3508 15.4066 36.3508 16.575V43.4223C36.3508 44.5924 37.3009 45.5434 38.4699 45.5434H53.4307C53.9974 45.5434 54.5292 45.3223 54.93 44.9206L59.3795 40.4737C59.7786 40.0722 60 39.5393 60 38.9752V16.575C60 15.4066 59.0474 14.4556 57.8785 14.4556ZM55.7571 18.6963V36.856H53.4307C52.2612 36.856 51.3111 37.8071 51.3111 38.9753V41.3008H40.5912V18.6963H55.7571Z" fill="#1275D3"/>
</svg>
