<svg width="37" height="38" viewBox="0 0 37 38" fill="none" xmlns="http://www.w3.org/2000/svg">
<path d="M36.9869 19.429C36.9421 17.54 36.6178 15.6674 36.0242 13.8696C35.9661 13.7053 35.8544 13.5645 35.7063 13.4687C35.5582 13.373 35.382 13.3277 35.205 13.3398C35.028 13.352 34.86 13.421 34.727 13.536C34.594 13.6511 34.5035 13.8059 34.4694 13.9765C34.0555 16.1648 33.0056 18.1897 31.4457 19.808C30.5888 20.6731 27.4692 23.5078 23.0957 23.2195C22.1992 23.158 20.1184 23.0186 18.2691 21.4636C17.3977 20.7262 16.7174 19.7968 16.2841 18.7519C16.1532 18.4461 16.0427 18.1322 15.9533 17.8123C16.1642 17.8161 16.3752 17.8085 16.5852 17.7897C16.7124 17.781 16.8354 17.7409 16.9425 17.673C18.285 16.8573 19.8094 16.3722 21.3851 16.2594C22.9608 16.1465 24.541 16.4093 25.9904 17.0251C26.1545 17.0938 26.3372 17.1075 26.51 17.0641C26.6829 17.0208 26.8363 16.9228 26.9465 16.7853L29.1233 14.0607C29.2176 13.9432 29.2756 13.8018 29.2902 13.653C29.3049 13.5043 29.2757 13.3546 29.206 13.2216L28.3756 11.6017C28.299 11.4528 28.1763 11.3315 28.025 11.2551L19.9099 7.15352L22.5565 1.09193C22.626 0.926862 22.6364 0.743612 22.5861 0.572015C22.5357 0.400418 22.4274 0.250583 22.279 0.146908C22.1305 0.0432328 21.9506 -0.00817419 21.7686 0.00105788C21.5865 0.01029 21.4129 0.0796172 21.2762 0.19775L15.7085 5.2129L14.7955 4.78202L15.0171 3.09734C15.0331 2.97033 15.0175 2.84141 14.9714 2.72165C14.9253 2.60189 14.8503 2.49487 14.7527 2.40979C14.655 2.3247 14.5378 2.2641 14.411 2.23319C14.2842 2.20228 14.1516 2.20198 14.0246 2.23232C11.8417 2.75982 9.77544 3.6733 7.92761 4.9278C6.7632 5.73273 5.69655 6.66536 4.74842 7.70752C1.83296 10.8106 0.15189 14.8355 0.0110685 19.0499C-0.0459563 20.6934 0.117543 22.337 0.497375 23.9387C1.2381 27.1571 2.86837 30.1139 5.20985 32.4858C7.55132 34.8577 10.5138 36.5532 13.7732 37.387C16.7582 38.1616 19.8922 38.2027 22.8973 37.5069C23.4992 37.3679 24.0933 37.1981 24.6771 36.9982C28.5787 35.6213 31.9163 33.0374 34.1849 29.6375C35.2576 27.9861 36.0403 26.1705 36.5006 24.266C36.8746 22.6808 37.038 21.0551 36.9869 19.429ZM22.9866 24.794C24.4808 24.8921 25.9796 24.6881 27.3898 24.1947C29.3624 23.4934 31.1472 22.3636 32.6102 20.8901C33.6835 19.7905 34.5463 18.511 35.1575 17.1126C35.5472 19.5268 35.4256 21.9937 34.8002 24.3599C33.953 24.946 33.0393 25.4341 32.0775 25.8146C30.2963 26.5244 28.3713 26.8205 26.4536 26.6796C24.0866 26.4892 21.8266 25.6317 19.9463 24.2109C20.1382 24.2789 20.3334 24.3437 20.5319 24.402C21.3331 24.6197 22.1562 24.7511 22.9866 24.794ZM22.5234 35.9712C19.7402 36.6174 16.8359 36.5686 14.0769 35.8294C11.318 35.0901 8.79287 33.684 6.73335 31.7401C4.40827 29.5191 2.78838 26.6873 2.06877 23.5856C1.7247 22.1171 1.57899 20.6107 1.6354 19.105C1.75709 15.2645 3.2833 11.5946 5.93607 8.76369C6.80526 7.81432 7.77943 6.96244 8.84068 6.22371C10.0828 5.37403 11.4373 4.69391 12.8668 4.2021L13.2638 4.07251L13.1248 5.13515C13.0998 5.30142 13.1301 5.47115 13.2111 5.61932C13.2921 5.76748 13.4196 5.88622 13.5747 5.95805L15.5034 6.86842C15.6491 6.9363 15.8122 6.96022 15.9718 6.93714C16.1314 6.91407 16.2805 6.84504 16.3999 6.73883L19.599 3.85544L18.1301 7.20536C18.0504 7.38904 18.0442 7.59541 18.1129 7.78334C18.1816 7.97127 18.32 8.12696 18.5006 8.2194L27.0391 12.5445L27.5254 13.484L26.05 15.3372C24.4559 14.7619 22.7505 14.5433 21.059 14.6975C19.3674 14.8516 17.7325 15.3746 16.2742 16.2281C15.8968 16.2465 15.5184 16.2237 15.1461 16.1601C15.1175 16.1573 15.0887 16.1573 15.0601 16.1601C14.4719 16.059 13.9137 15.8324 13.4249 15.4965C12.9361 15.1606 12.5287 14.7235 12.2316 14.2162C11.776 13.3348 11.6665 12.3204 11.9239 11.3652C11.9578 11.2624 11.9699 11.1539 11.9593 11.0463C11.9487 10.9388 11.9157 10.8345 11.8624 10.74C11.8091 10.6454 11.7365 10.5625 11.6492 10.4965C11.5618 10.4305 11.4616 10.3827 11.3547 10.3561C11.2478 10.3294 11.1364 10.3246 11.0275 10.3417C10.9186 10.3589 10.8144 10.3978 10.7214 10.4559C10.6285 10.514 10.5486 10.5902 10.4869 10.6798C10.4251 10.7693 10.3828 10.8703 10.3625 10.9764C9.99575 12.3175 10.1575 13.7446 10.8157 14.9743C11.1823 15.6072 11.6734 16.1627 12.2605 16.6087C12.8476 17.0547 13.5192 17.3823 14.2364 17.5726C14.2628 17.6957 14.2926 17.8221 14.3224 17.9452C14.2864 19.3959 14.4477 20.845 14.8021 22.2541C15.102 23.4557 15.5567 24.6151 16.1551 25.7044C16.8603 26.9869 17.787 28.1401 18.8943 29.1126C20.6436 30.6173 22.75 31.6688 25.0211 32.171C26.5179 32.4968 28.0598 32.5757 29.5831 32.4042C27.5572 34.1321 25.1354 35.3558 22.5234 35.9712ZM31.621 30.3859C29.6288 30.9883 27.512 31.0795 25.4735 30.6506C23.435 30.2217 21.5432 29.2872 19.9794 27.9366C18.6898 26.7982 17.6808 25.3881 17.0285 23.8124C18.8282 25.6331 21.9213 27.9172 26.3179 28.2541C28.26 28.3995 30.2117 28.1457 32.0478 27.509C32.2595 27.4377 32.4679 27.3599 32.6763 27.2789C33.113 27.1072 33.5398 26.9064 33.9632 26.6958C33.6373 27.4211 33.2569 28.1217 32.8252 28.7919C32.4584 29.3475 32.0562 29.8799 31.621 30.3859Z" fill="#373737"/>
</svg>
